Coordinates
version=1
nRows=30
nColumns=23
inDegrees=yes

Units are S.I. units (second, meters, Newtons, ...)
Angles are in degrees.

endheader
time	pelvis_tilt	pelvis_list	pelvis_rotation	pelvis_tx	pelvis_ty	pelvis_tz	hip_flexion_r	hip_adduction_r	hip_rotation_r	knee_angle_r	knee_angle_r_beta	ankle_angle_r	subtalar_angle_r	mtp_angle_r	hip_flexion_l	hip_adduction_l	hip_rotation_l	knee_angle_l	knee_angle_l_beta	ankle_angle_l	subtalar_angle_l	mtp_angle_l
    120.99555600	     -7.97117461	      3.80813950	      4.72585097	      0.05650497	      1.25078775	      0.24536837	     42.03656723	    -11.26953172	     -2.00197815	     72.63558435	      1.26773010	     -5.34647463	      0.00000000	      0.00000000	     70.53221195	      1.89579163	      0.68397114	     84.98134002	      1.48320419	     12.39758999	      0.00000000	      0.00000000
    121.00444400	     -7.57362378	      3.08001236	      3.88932021	      0.05662812	      1.25079198	      0.24448377	     42.94586858	    -10.34486323	     -1.57607117	     75.78235365	      1.32265159	     -4.94327832	      0.00000000	      0.00000000	     68.47899699	      0.92274887	      0.88265273	     81.76928375	      1.42714323	     12.25450513	      0.00000000	      0.00000000
    121.01333300	     -7.25250272	      2.17422569	      3.06890112	      0.05683579	      1.25066094	      0.24348141	     43.94940530	     -9.29398532	     -1.32167378	     78.85059506	      1.37620250	     -4.66494143	      0.00000000	      0.00000000	     66.43754452	     -0.16243801	      1.16329291	     78.54530234	      1.37087414	     12.09704638	      0.00000000	      0.00000000
    121.02222200	     -6.97984993	      1.35214726	      2.19148900	      0.05714450	      1.25073324	      0.24264892	     45.04405628	     -8.23715537	     -0.94092605	     81.83089431	      1.42821854	     -4.24334957	      0.00000000	      0.00000000	     64.26741390	     -1.29936275	      1.24306684	     75.14596091	      1.31154444	     11.79780912	      0.00000000	      0.00000000
    121.03111100	     -6.67712096	      0.63406270	      1.36007502	      0.05728478	      1.25058870	      0.24172658	     46.24028946	     -7.33555511	     -0.56791994	     84.93228444	      1.48234800	     -3.77710989	      0.00000000	      0.00000000	     62.00735159	     -2.35043066	      1.16323677	     71.75414790	      1.25234613	     11.33254632	      0.00000000	      0.00000000
    121.04000000	     -6.49737375	     -0.26611132	      0.50496380	      0.05753873	      1.25051040	      0.24088104	     47.55487514	     -6.23992472	     -0.32527527	     87.81421402	      1.53264716	     -3.48846095	      0.00000000	      0.00000000	     59.80998728	     -3.57074039	      1.12657913	     68.32870073	      1.19256080	     10.76836202	      0.00000000	      0.00000000
    121.04888900	     -6.40032236	     -1.19399862	     -0.36316446	      0.05781978	      1.25042938	      0.24017194	     49.00740690	     -5.09457128	     -0.13077198	     90.60598475	      1.58137276	     -3.27433786	      0.00000000	      0.00000000	     57.64134702	     -4.86368951	      0.97702540	     64.89700936	      1.13266649	      9.97491970	      0.00000000	      0.00000000
    121.05777800	     -6.37438016	     -2.08102531	     -1.17472523	      0.05813537	      1.25043563	      0.23948837	     50.57440921	     -4.03028538	     -0.00288702	     93.29426851	      1.62829216	     -3.05307935	      0.00000000	      0.00000000	     55.47822581	     -6.10217156	      0.72573863	     61.41525408	      1.07189839	      8.97757703	      0.00000000	      0.00000000
    121.06666700	     -6.42240493	     -3.00177735	     -1.96766395	      0.05848031	      1.25042608	      0.23889347	     52.25994434	     -2.94476816	      0.02963301	     95.86715285	      1.67319746	     -2.85170070	      0.00000000	      0.00000000	     53.37704245	     -7.37446037	      0.39172980	     57.98070493	      1.01195420	      7.73445535	      0.00000000	      0.00000000
    121.07555600	     -6.53094153	     -3.85356699	     -2.69457286	      0.05886261	      1.25049877	      0.23831650	     54.04154688	     -1.97542166	      0.01242837	     98.31932151	      1.71599588	     -2.60281696	      0.00000000	      0.00000000	     51.30632553	     -8.55429548	     -0.04590149	     54.55382757	      0.95214391	      6.25076040	      0.00000000	      0.00000000
    121.08444400	     -6.67832463	     -4.66460208	     -3.36020100	      0.05925098	      1.25061945	      0.23777229	     55.89603500	     -1.08433986	     -0.07329030	    100.64382483	      1.75656612	     -2.29822367	      0.00000000	      0.00000000	     49.28510489	     -9.66407563	     -0.55730659	     51.21014499	      0.89378564	      4.53551410	      0.00000000	      0.00000000
    121.09333300	     -6.88770400	     -5.47602675	     -3.99620031	      0.05969849	      1.25074731	      0.23732667	     57.81819562	     -0.21637007	     -0.24649730	    102.80484283	      1.79428299	     -1.90872819	      0.00000000	      0.00000000	     47.36393543	    -10.77082845	     -1.15218805	     48.01658836	      0.83804756	      2.65046390	      0.00000000	      0.00000000
    121.10222200	     -7.08279576	     -6.17775043	     -4.54330005	      0.06016238	      1.25093005	      0.23686460	     59.74764836	      0.49488075	     -0.42942659	    104.84045067	      1.82981105	     -1.42644272	      0.00000000	      0.00000000	     45.45689128	    -11.71803220	     -1.80158606	     44.96342642	      0.78475983	      0.62749335	      0.00000000	      0.00000000
    121.11111100	     -7.31710189	     -6.86853647	     -5.06085148	      0.06065952	      1.25106930	      0.23646650	     61.70197332	      1.17622055	     -0.67936361	    106.68857184	      1.86206685	     -0.83602930	      0.00000000	      0.00000000	     43.67039623	    -12.64543033	     -2.49260718	     42.16906243	      0.73598898	     -1.40019223	      0.00000000	      0.00000000
    121.12000000	     -7.55431872	     -7.47564981	     -5.51607942	      0.06117371	      1.25119059	      0.23606675	     63.64662479	      1.74811223	     -0.93149621	    108.35930035	      1.89122657	     -0.14164021	      0.00000000	      0.00000000	     41.96926803	    -13.45592336	     -3.20872559	     39.65104991	      0.69204137	     -3.38798351	      0.00000000	      0.00000000
    121.12888900	     -7.76760672	     -8.00592809	     -5.90548588	      0.06165511	      1.25125420	      0.23565108	     65.54509515	      2.21807373	     -1.18831886	    109.83902073	      1.91705256	      0.61105021	      0.00000000	      0.00000000	     40.34855416	    -14.15014378	     -3.89314488	     37.45228935	      0.65366576	     -5.18864902	      0.00000000	      0.00000000
    121.13777800	     -8.01993007	     -8.49432938	     -6.26916531	      0.06213119	      1.25120310	      0.23530685	     67.44069520	      2.65525291	     -1.46227745	    111.09339945	      1.93894560	      1.45058790	      0.00000000	      0.00000000	     38.90191268	    -14.80150134	     -4.55276931	     35.65456375	      0.62228953	     -6.71842548	      0.00000000	      0.00000000
    121.14666700	     -8.25051928	     -8.87718681	     -6.57044462	      0.06254138	      1.25107607	      0.23496528	     69.27096887	      2.98428042	     -1.70347921	    112.12465533	      1.95694441	      2.31316572	      0.00000000	      0.00000000	     37.56455697	    -15.31513345	     -5.14030783	     34.23960227	      0.59759379	     -7.95147529	      0.00000000	      0.00000000
    121.15555600	     -8.43897658	     -9.14374802	     -6.78874856	      0.06286023	      1.25092729	      0.23459985	     70.99560028	      3.19749614	     -1.88834236	    112.91542429	      1.97074593	      3.16011904	      0.00000000	      0.00000000	     36.32797603	    -15.66559372	     -5.62500132	     33.18707183	      0.57922367	     -8.89174867	      0.00000000	      0.00000000
    121.16444400	     -8.63839357	     -9.44564159	     -6.94627332	      0.06311501	      1.25075796	      0.23417670	     72.61597637	      3.38067268	     -2.17622344	    113.38312897	      1.97890892	      3.82322281	      0.00000000	      0.00000000	     35.29243739	    -16.00812658	     -5.89674617	     32.61787092	      0.56928924	     -9.20742311	      0.00000000	      0.00000000
    121.17333300	     -8.85503248	     -9.51502199	     -7.12121528	      0.06327317	      1.25046476	      0.23406794	     74.21020399	      3.53027705	     -2.25057378	    113.67785181	      1.98405280	      4.76685920	      0.00000000	      0.00000000	     34.41707427	    -16.17767748	     -6.26544396	     32.40292914	      0.56553780	     -9.57640936	      0.00000000	      0.00000000
    121.18222200	     -8.93173756	     -9.53598215	     -7.15080521	      0.06316817	      1.25027331	      0.23384685	     75.54488955	      3.55252052	     -2.32449356	    113.68401421	      1.98416035	      5.39223264	      0.00000000	      0.00000000	     33.63144197	    -16.20965895	     -6.39236139	     32.64586206	      0.56977778	     -9.63807350	      0.00000000	      0.00000000
    121.19111100	     -9.01530668	     -9.45622027	     -7.15726332	      0.06300044	      1.25012822	      0.23367236	     76.75549254	      3.53922788	     -2.32545761	    113.42375730	      1.97961801	      6.04939168	      0.00000000	      0.00000000	     33.01774839	    -16.13568316	     -6.44179662	     33.22575684	      0.57989885	     -9.51189888	      0.00000000	      0.00000000
    121.20000000	     -9.08355991	     -9.28050105	     -7.10029760	      0.06268562	      1.25002050	      0.23365819	     77.80698966	      3.49312371	     -2.26190309	    112.91773235	      1.97078621	      6.68960842	      0.00000000	      0.00000000	     32.59753822	    -15.95220500	     -6.37248144	     34.19082088	      0.59674240	     -9.20124322	      0.00000000	      0.00000000
    121.20888900	     -9.48162235	     -9.12856460	     -6.89056027	      0.06246575	      1.24953048	      0.23338913	     78.98712620	      3.26829306	     -2.31114671	    112.14323269	      1.95726864	      7.59140758	      0.00000000	      0.00000000	     32.81227207	    -15.67897611	     -5.82027021	     35.66588567	      0.62248714	     -7.90654761	      0.00000000	      0.00000000
    121.21777800	     -9.66400719	     -8.92695006	     -6.60620449	      0.06192669	      1.24930619	      0.23322412	     79.79481753	      3.02594329	     -2.30209176	    111.08913198	      1.93887112	      7.99279911	      0.00000000	      0.00000000	     33.02888442	    -15.33977382	     -5.23170403	     37.48286400	      0.65419939	     -7.03710276	      0.00000000	      0.00000000
    121.22666700	     -9.78152631	     -8.66325007	     -6.26885761	      0.06131143	      1.24916460	      0.23314571	     80.35069499	      2.75906405	     -2.22679245	    109.82263267	      1.91676653	      8.42097418	      0.00000000	      0.00000000	     33.36914210	    -14.91850086	     -4.57861737	     39.64338432	      0.69190758	     -6.02657001	      0.00000000	      0.00000000
    121.23555600	     -9.88907856	     -8.38277247	     -5.85345433	      0.06064682	      1.24903979	      0.23306358	     80.69312221	      2.42797134	     -2.16659686	    108.31999175	      1.89054050	      8.79305456	      0.00000000	      0.00000000	     33.91707618	    -14.44438094	     -3.82099376	     42.16104796	      0.73584910	     -4.90447989	      0.00000000	      0.00000000
    121.24444400	     -9.83745726	     -8.05507523	     -5.38848543	      0.05982667	      1.24907495	      0.23304901	     80.68419103	      2.10849177	     -2.00615729	    106.61437378	      1.86077185	      9.10337495	      0.00000000	      0.00000000	     34.45748561	    -13.89015132	     -2.99442840	     44.92281717	      0.78405107	     -3.86117740	      0.00000000	      0.00000000
    121.25333300	     -9.88902352	     -7.74991672	     -4.90600160	      0.05915459	      1.24897887	      0.23311717	     80.56024924	      1.78194485	     -1.90031349	    104.67780286	      1.82697231	      9.35275831	      0.00000000	      0.00000000	     35.27306331	    -13.36010539	     -2.14209705	     47.97138614	      0.83725863	     -2.73954043	      0.00000000	      0.00000000
